<?xml version="1.0" ?><svg enable-background="new 0 0 32 32" version="1.1" viewBox="0 0 32 32" xml:space="preserve" xmlns="http://www.w3.org/2000/svg" xmlns:xlink="http://www.w3.org/1999/xlink"><g id="style_2"><g><g><g><polygon points="21.945,3.118 20.452,1.625 1.625,1.625 1.625,28.882 10.055,28.882 11.548,30.375 30.375,30.375 30.375,3.118           "/></g></g><g><polygon fill="#FF0000" points="1.625,4.777 8.492,4.777 9.617,3.652 16.529,3.652 18.047,5.17 23.497,5.17 23.497,4.92      18.151,4.92 16.632,3.402 1.625,3.402    "/></g><g><g><polygon fill="#FF0000" points="21.52,28.601 14.995,28.601 14.995,28.351 21.416,28.351 22.205,27.563 30.375,27.563       30.375,27.813 22.309,27.813     "/></g></g><g opacity="0.25"><rect fill="#FFFFFF" height="27.257" width="2.612" x="1.625" y="1.625"/></g><g opacity="0.25"><rect fill="#FFFFFF" height="1.375" width="2.612" x="1.625" y="3.402"/></g></g></g><g id="s2"><g><g><path d="M23.872,23.524v-5.822c0-3.119-1.665-4.571-3.885-4.571c-1.792,0-2.594,0.986-3.042,1.677V13.37H13.57     c0.045,0.953,0,10.154,0,10.154h3.375v-5.671c0-0.303,0.022-0.606,0.111-0.823c0.244-0.606,0.799-1.234,1.731-1.234     c1.222,0,1.71,0.931,1.71,2.296v5.433L23.872,23.524L23.872,23.524z M10.015,11.984c1.177,0,1.91-0.78,1.91-1.755     c-0.022-0.996-0.733-1.754-1.887-1.754s-1.909,0.758-1.909,1.754c0,0.975,0.733,1.755,1.866,1.755H10.015z M11.702,23.524V13.37     H8.327v10.154H11.702z" fill="#FFFFFF"/></g></g></g></svg>